<svg width="41" height="37" viewBox="0 0 41 37" fill="none" xmlns="http://www.w3.org/2000/svg">
<path d="M39.2917 4.55556H31.8889V1.70833C31.8889 0.761632 31.1273 0 30.1806 0H10.8194C9.87274 0 9.11111 0.761632 9.11111 1.70833V4.55556H1.70833C0.761632 4.55556 0 5.31719 0 6.26389V10.25C0 12.7911 1.60156 15.4035 4.40608 17.4179C6.64826 19.0337 9.37448 20.0587 12.2359 20.3861C14.471 24.0946 17.0833 25.625 17.0833 25.625V30.75H13.6667C11.154 30.75 9.11111 32.2234 9.11111 34.7361V35.5903C9.11111 36.0601 9.49549 36.4444 9.96528 36.4444H31.0347C31.5045 36.4444 31.8889 36.0601 31.8889 35.5903V34.7361C31.8889 32.2234 29.846 30.75 27.3333 30.75H23.9167V25.625C23.9167 25.625 26.529 24.0946 28.7641 20.3861C31.6326 20.0587 34.3589 19.0337 36.5939 17.4179C39.3913 15.4035 41 12.7911 41 10.25V6.26389C41 5.31719 40.2384 4.55556 39.2917 4.55556ZM7.06823 13.7236C5.33142 12.4708 4.55556 11.0757 4.55556 10.25V9.11111H9.12535C9.19653 11.4316 9.53819 13.4674 10.0365 15.2469C8.96163 14.8767 7.95799 14.3642 7.06823 13.7236ZM36.4444 10.25C36.4444 11.396 35.1845 12.8196 33.9318 13.7236C33.042 14.3642 32.0312 14.8767 30.9564 15.2469C31.4547 13.4674 31.7964 11.4316 31.8675 9.11111H36.4444V10.25Z" fill="white"/>
</svg>
