<svg width="19" height="19" viewBox="0 0 19 19" fill="none" xmlns="http://www.w3.org/2000/svg">
<path d="M12.8901 5.82258C12.3347 2.40181 11.0246 0 9.5 0C7.9754 0 6.66532 2.40181 6.10988 5.82258H12.8901ZM5.82258 9.5C5.82258 10.3504 5.86855 11.1663 5.94899 11.9516H13.0472C13.1276 11.1663 13.1736 10.3504 13.1736 9.5C13.1736 8.6496 13.1276 7.83367 13.0472 7.04839H5.94899C5.86855 7.83367 5.82258 8.6496 5.82258 9.5ZM18.2607 5.82258C17.1651 3.22157 14.9472 1.21048 12.2083 0.398387C13.1429 1.69315 13.7865 3.64294 14.1236 5.82258H18.2607ZM6.7879 0.398387C4.05282 1.21048 1.83105 3.22157 0.739314 5.82258H4.87641C5.20968 3.64294 5.85323 1.69315 6.7879 0.398387ZM18.6706 7.04839H14.2768C14.3573 7.85282 14.4032 8.67641 14.4032 9.5C14.4032 10.3236 14.3573 11.1472 14.2768 11.9516H18.6667C18.8774 11.1663 18.9962 10.3504 18.9962 9.5C18.9962 8.6496 18.8774 7.83367 18.6706 7.04839ZM4.59677 9.5C4.59677 8.67641 4.64274 7.85282 4.72319 7.04839H0.329435C0.122581 7.83367 0 8.6496 0 9.5C0 10.3504 0.122581 11.1663 0.329435 11.9516H4.71935C4.64274 11.1472 4.59677 10.3236 4.59677 9.5ZM6.10988 13.1774C6.66532 16.5982 7.9754 19 9.5 19C11.0246 19 12.3347 16.5982 12.8901 13.1774H6.10988ZM12.2121 18.6016C14.9472 17.7895 17.169 15.7784 18.2645 13.1774H14.1274C13.7903 15.3571 13.1468 17.3069 12.2121 18.6016ZM0.739314 13.1774C1.83488 15.7784 4.05282 17.7895 6.79173 18.6016C5.85706 17.3069 5.21351 15.3571 4.87641 13.1774H0.739314Z" fill="white"/>
</svg>
