<svg width="19" height="18" viewBox="0 0 19 18" fill="none" xmlns="http://www.w3.org/2000/svg">
<path d="M18.75 3.75001V4.37501C18.75 4.45789 18.7171 4.53738 18.6585 4.59598C18.5999 4.65459 18.5204 4.68751 18.4375 4.68751H17.5V5.15626C17.5 5.41513 17.2901 5.62501 17.0312 5.62501H1.71875C1.45988 5.62501 1.25 5.41513 1.25 5.15626V4.68751H0.3125C0.22962 4.68751 0.150134 4.65459 0.0915291 4.59598C0.032924 4.53738 0 4.45789 0 4.37501V3.75001C4.46931e-07 3.68819 0.018339 3.62775 0.0526953 3.57635C0.0870517 3.52495 0.135882 3.4849 0.193008 3.46126L9.25551 0.0237606C9.33202 -0.0079202 9.41798 -0.0079202 9.49449 0.0237606L18.557 3.46126C18.6141 3.4849 18.6629 3.52495 18.6973 3.57635C18.7317 3.62775 18.75 3.68819 18.75 3.75001ZM17.8125 15.625H0.9375C0.419727 15.625 0 16.0447 0 16.5625V17.1875C0 17.2704 0.032924 17.3499 0.0915291 17.4085C0.150134 17.4671 0.22962 17.5 0.3125 17.5H18.4375C18.5204 17.5 18.5999 17.4671 18.6585 17.4085C18.7171 17.3499 18.75 17.2704 18.75 17.1875V16.5625C18.75 16.0447 18.3303 15.625 17.8125 15.625ZM3.125 6.25001V13.75H1.71875C1.45988 13.75 1.25 13.9599 1.25 14.2188V15H17.5V14.2188C17.5 13.9599 17.2901 13.75 17.0312 13.75H15.625V6.25001H13.125V13.75H10.625V6.25001H8.125V13.75H5.625V6.25001H3.125Z" fill="white"/>
</svg>
