<svg width="18" height="21" viewBox="0 0 18 21" fill="none" xmlns="http://www.w3.org/2000/svg">
<path d="M17.5657 16.2121L12.8568 8.63839V2.57143H13.1782C13.7126 2.57143 14.1425 2.14152 14.1425 1.60714V0.964286C14.1425 0.429911 13.7126 0 13.1782 0H4.82105C4.28668 0 3.85677 0.429911 3.85677 0.964286V1.60714C3.85677 2.14152 4.28668 2.57143 4.82105 2.57143H5.14248V8.63839L0.433552 16.2121C-0.74368 18.1045 0.614356 20.5714 2.84828 20.5714H15.151C17.3889 20.5714 18.7429 18.1004 17.5657 16.2121ZM5.54025 12.8571L7.47686 9.73929C7.62552 9.53036 7.70989 9.27321 7.70989 9V2.57143H10.2813V9C10.2813 9.27723 10.3697 9.53036 10.5144 9.73929L12.451 12.8571H5.54025Z" fill="white"/>
</svg>
