<svg width="19" height="19" viewBox="0 0 19 19" fill="none" xmlns="http://www.w3.org/2000/svg">
<path d="M18.4446 2.00343C18.2607 1.30625 17.7129 0.758468 17.0157 0.570766C16.1002 0.325605 14.6714 0.0344758 13.0012 0L19 6.00645C18.9694 4.34012 18.6859 2.91895 18.4446 2.00343ZM0.555444 16.9966C0.739315 17.6938 1.2871 18.2415 1.98427 18.4292C2.8998 18.6744 4.32863 18.9655 5.99879 19L0 12.9935C0.0306452 14.6599 0.314113 16.081 0.555444 16.9966ZM0.160887 10.5496L8.44274 18.8468C13.5183 18.1036 17.9734 14.2998 18.8429 8.4504L10.5573 0.153226C5.48165 0.896371 1.02661 4.7002 0.160887 10.5496ZM12.3155 5.81492C12.4343 5.69617 12.6296 5.69617 12.7484 5.81492L13.1813 6.24778C13.3 6.36653 13.3 6.56189 13.1813 6.68064L12.0972 7.76472L13.1813 8.84879C13.3 8.96754 13.3 9.1629 13.1813 9.28165L12.7484 9.71452C12.6296 9.83327 12.4343 9.83327 12.3155 9.71452L11.2315 8.63044L10.3657 9.5L11.4498 10.5841C11.5685 10.7028 11.5685 10.8982 11.4498 11.0169L11.0169 11.4498C10.8982 11.5685 10.7028 11.5685 10.5841 11.4498L9.5 10.3657L8.63427 11.2315L9.71835 12.3155C9.8371 12.4343 9.8371 12.6296 9.71835 12.7484L9.28548 13.1813C9.16673 13.3 8.97137 13.3 8.85262 13.1813L7.76855 12.0972L6.68448 13.1813C6.56573 13.3 6.37036 13.3 6.25161 13.1813L5.81875 12.7484C5.7 12.6296 5.7 12.4343 5.81875 12.3155L6.90282 11.2315L5.81875 10.1512C5.7 10.0325 5.7 9.8371 5.81875 9.71835L6.25161 9.28548C6.37036 9.16673 6.56573 9.16673 6.68448 9.28548L7.76855 10.3696L8.63427 9.50383L7.5502 8.41976C7.43145 8.30101 7.43145 8.10565 7.5502 7.9869L7.98306 7.55403C8.10181 7.43528 8.29718 7.43528 8.41593 7.55403L9.5 8.63811L10.3657 7.77238L9.28165 6.68831C9.1629 6.56956 9.1629 6.37419 9.28165 6.25544L9.71452 5.82258C9.83327 5.70383 10.0286 5.70383 10.1474 5.82258L11.2315 6.90665L12.3155 5.81492Z" fill="white"/>
</svg>
